<svg height="800" width="800" xmlns="http://www.w3.org/2000/svg" viewBox="0 0 512 512" xml:space="preserve" fill="#ff6d28"><path d="M408.776 93.734c-5.712 0-11.462 2.428-11.462 2.428-11.768 6.67-34.605 20.825-47.229 18.72-16.434-2.734-54.276-3.04-86.138 3.905-2.039-1.352-4.085-2.742-6.104-3.984-6.16-3.77-12.2-6.96-18.198-9.364-5.814-2.318-11.607-3.912-17.664-4.226v-.032a318.06 318.06 0 0 0-26.046-1.068c-12.263.023-22.716.714-30.481 1.98v-.008l-.126.008c-.609.055-3.649-.456-7.247-1.775-5.491-1.933-12.506-5.311-18.98-8.752-6.52-3.457-12.49-6.897-16.803-9.223a12.735 12.735 0 0 0-6.843-1.524c-36.128 1.948-65.011 16.042-84.693 34.793C11.12 134.427.13 157.618 0 179.488c0 6.67 1.08 13.229 3.469 19.388a44.262 44.262 0 0 0 10.208 15.539 34.524 34.524 0 0 0 2.353 2.686c1.925 1.956 4.218 4.038 6.921 6.505 8.02 7.267 19.541 17.676 27.023 27.072 7.424 9.277 12.208 17.738 16.176 25.279 1.988 3.755 3.759 7.306 5.641 10.692a84.191 84.191 0 0 0 2.482 4.14l-1.327 1.32c-4.709 4.603-7.341 10.762-7.416 17.353-.067 6.576 2.424 12.813 7.035 17.526 4.682 4.776 10.943 7.416 17.632 7.416 4.69 0 9.172-1.352 13.076-3.818a24.49 24.49 0 0 0-4.116 13.339c-.071 6.567 2.432 12.797 7.035 17.502 4.674 4.793 10.943 7.416 17.632 7.416 5.263 0 10.244-1.712 14.443-4.776-7.644 9.592-7.223 23.575 1.56 32.57 4.678 4.777 10.932 7.4 17.616 7.4h.008c6.484 0 12.617-2.498 17.282-7.07l4.56-4.525c-1.909 3.504-3.048 7.385-3.095 11.47-.067 6.591 2.423 12.813 7.035 17.518 4.678 4.777 10.939 7.416 17.632 7.416 6.48 0 12.608-2.498 17.314-7.094l2.868-2.907a330.104 330.104 0 0 0 3.751 3.041l2.058 1.563c.688.48 1.088.825 2.384 1.579 5.216 2.86 10.205 4.101 14.172 4.965 1.98.416 3.673.699 4.93.872l1.532.196.474.048.185.015.113.023.122.008.165.008c.149 0 .079.024.868.04l.935-.04c8.689-.636 16.913-3.621 23.666-8.782 2.687-2.059 5.04-4.548 7.145-7.267 4.156 1.351 8.562 2.153 13.147 2.153 18.807-.016 34.624-12.114 40.524-28.91 2.922.628 5.907 1.045 9.002 1.045 18.477-.023 34.11-11.682 40.253-28.006l1.532.141c23.835 0 43.121-19.301 43.129-43.12.016-6.607-.903-13.929-3.425-21.533 16.364-14.455 40.324-36.773 44.652-48.894 2.097-5.829 7.117-18.98 10.527-23.749 5.153-5.632 18.649-18.327 18.649-18.327 30.197-28.044-6.253-107.419-92.761-112.18zm-20.771 241.927c-2.349 0-4.556-.471-6.614-1.319-.636-.283-1.312-.394-1.972-.566l-18.344-21.822c-4.045-4.683-11.132-5.209-15.813-1.155-4.698 4.053-5.217 11.132-1.17 15.83l19.066 22.656c-1.438 8.068-8.445 14.226-16.937 14.234-4.352-.008-8.217-1.571-11.312-4.266-.59-.518-1.297-.824-1.96-1.233l-16.752-19.969c-4.045-4.698-11.132-5.216-15.818-1.162a11.225 11.225 0 0 0-1.159 15.829l14.404 17.275c.038.424-.044.849.027 1.272.192 1.045.282 1.996.282 2.867-.015 9.529-7.726 17.228-17.239 17.244-2.985 0-5.72-.754-8.155-2.066l-21.148-21.824c-4.513-4.25-11.615-4.03-15.857.464-4.246 4.525-4.03 11.618.475 15.869l12.29 13.473c-.876 1.704-1.988 3.252-3.637 4.532-2.282 1.76-5.421 2.954-8.991 3.363a47.172 47.172 0 0 1-4.148-.801c-2.058-.456-4.207-1.226-5.374-1.823a107.56 107.56 0 0 1-2.305-1.799c-.943-.747-2.122-1.721-3.402-2.758 1.831-7.934-.232-16.607-6.336-22.829-4.674-4.792-10.943-7.415-17.632-7.415-3.338 0-6.568.668-9.568 1.948l-.456-.384c4.254-4.533 6.69-10.346 6.76-16.6.067-6.591-2.432-12.813-7.043-17.518-4.675-4.769-10.944-7.416-17.628-7.416-5.232 0-10.189 1.696-14.369 4.729 3.382-4.274 5.346-9.442 5.405-14.973.075-6.584-2.427-12.805-7.03-17.511-4.679-4.792-10.944-7.423-17.636-7.423-6.482 0-12.609 2.498-17.271 7.07l-4.16 4.131c5.13-9.293 3.944-21.194-3.845-29.152-4.682-4.784-10.947-7.416-17.64-7.416-5.334 0-10.369 1.768-14.612 4.918-4.485-8.382-10.884-22.303-23.198-37.661-7.258-9.057-16.116-17.487-23.485-24.275-3.676-3.385-6.983-6.339-9.407-8.586a153.931 153.931 0 0 1-2.816-2.687l-.597-.644-.008-.008-.028.024-1.626-1.902c-2.022-1.885-3.528-4.124-4.615-6.912-1.084-2.789-1.716-6.152-1.716-10.024-.122-12.727 7.337-30.606 22.719-45.116 14.742-13.992 36.38-25.036 64.826-27.362 5.272 2.922 12.817 7.212 20.822 11.147 4.969 2.443 10.095 4.754 15.194 6.56 5.145 1.775 10.106 3.205 15.884 3.268 1.426 0 2.765-.118 3.995-.298l.192-.032c5.479-.935 15.177-1.665 26.419-1.65 7.435-.015 15.59.283 23.912.974l.594.031c2.043.056 5.456.786 9.6 2.459l.939.432c-34.919 15.774-84.41 46.105-100.672 51.534-18.571 6.191-20.127 30.968 21.658 35.602 41.797 4.651 78.942-21.682 88.224-26.301 6.666-3.338 49.004.738 72.458 3.3 10.342 10.212 19.408 19.686 26.014 26.85l51.511 62.973.228.259c6.607 7.644 10.189 13.85 12.208 19.168 2.011 5.318 2.624 9.907 2.64 15.131-.017 9.52-7.716 17.227-17.245 17.242z"/></svg>